<svg xmlns="http://www.w3.org/2000/svg" width="155.696" height="49.47" viewBox="0 0 155.696 49.47"><defs><style>.a{fill:#141114;}</style></defs><g transform="translate(-533.911 -404.903)"><path class="a" d="M1272.414,475.511l-6.228,15.594-6.075-15.594h-6.123l9.153,21.639v13.982h5.492l.009-14,9.492-21.617Z" transform="translate(-588.528 -57.709)"/><rect class="a" width="23.034" height="4.644" transform="translate(666.016 404.918)"/><path class="a" d="M1163.759,543.144c0-4.272-2.522-6.444-6.654-6.444h-11.858v24.442h5.044V551.13h5.237c2.032,0,2.907,1.191,2.978,3.152l.14,4.234v2.627h4.982l-.009-4.129c-.07-5.289-.595-7.18-4.027-7.635v-.07C1162.427,548.713,1163.759,546.471,1163.759,543.144Zm-8.826,4.483h-4.642v-7.214h4.922c2.277,0,3.5,1.156,3.5,3.467C1158.715,546.576,1157.349,547.627,1154.933,547.627Z" transform="translate(-499.652 -107.72)"/><path class="a" d="M1159.572,419.933h-9.281V416.6H1157v-4.132h-6.712V409.12h8.931v-4.132h-13.975v19.079h14.325Z" transform="translate(-499.652 -0.069)"/><path class="a" d="M1006.868,557.207c-6.432,0-10.6,4.288-10.6,10.838,0,6.511,4.169,10.8,10.6,10.8,6.471,0,10.64-4.288,10.64-10.8C1017.508,561.495,1013.339,557.207,1006.868,557.207Zm0,17.389c-3.811,0-4.963-3.3-4.963-6.551,0-3.3,1.151-6.59,4.963-6.59,3.851,0,5,3.3,5,6.59C1011.87,571.3,1010.719,574.6,1006.868,574.6Z" transform="translate(-377.89 -124.48)"/><path class="a" d="M1032.251,414.548h-6.731v-9.561h-5.043v23.5h5.043v-9.593h6.731v9.593h5.043v-23.5h-5.043Z" transform="translate(-397.676 -0.069)"/><path class="a" d="M899.939,409.12h5.887v44.372h5.043V409.12h5.887v-4.132H899.939Z" transform="translate(-299.159 -0.069)"/><path class="a" d="M806.455,464.439c3.152-.1,3.853,3.152,3.853,5.654h5.4c0-3.353-1.2-9.757-9.257-9.657-7.806,0-10.007,5.8-10.007,14.16v11c0,8.357,2.2,14.161,10.007,14.161,6.655,0,8.857-4.053,9.207-10.508h-5.1c0,4.053-1.1,6.555-4.1,6.5-3.9,0-4.6-4.2-4.6-10.158v-11C801.852,468.642,802.552,464.439,806.455,464.439Z" transform="translate(-214.575 -45.387)"/><rect class="a" width="21.015" height="4.804" transform="translate(556.051 448.619)"/><path class="a" d="M673.815,482.451V467.04c0-4.754-3.8-6.6-8.556-6.6-7.105,0-9.457,3.152-9.457,8.856h5.1c0-2.6.5-5.154,4.1-5.154,2.852,0,3.7,1.551,3.7,4,0,2.352-1.2,2.9-3.152,3.453l-4.2,1.151c-3.653,1.2-6.255,2.451-6.255,8.456,0,5.154,2.7,7.556,7.005,7.556a7,7,0,0,0,6.7-3.953h.1c.15,2.6,2.152,3.552,4.553,3.552a6.452,6.452,0,0,0,2.652-.65v-3.5a2.245,2.245,0,0,1-.9.15C674.416,484.353,673.815,483.452,673.815,482.451Zm-5.1-4.1c0,3.953-1.6,6.4-4.854,6.4-2.251,0-3.352-1.8-3.352-4.053,0-2,.65-3.6,2.2-4.353,1.6-.751,4.6-1.4,6-2.5Z" transform="translate(-99.05 -45.387)"/><path class="a" d="M539.615,411.841V409.8l2,0,52.546-.088v-4.8l-52.789.08-7.463.011v48.429h5.7V432.976H551.47v-4.8H539.615Z" transform="translate(0 0)"/></g></svg>