<svg xmlns="http://www.w3.org/2000/svg" width="224.153" height="40.664" viewBox="0 0 224.153 40.664"><defs><style>.a{fill:#000;}</style></defs><path class="a" d="M33.09,25.109v-6.23a12.862,12.862,0,0,0-6.442-1.52c-8.01,0-13.458,5.236-13.458,13.038,0,7.7,5.291,13.041,12.884,13.041A13.958,13.958,0,0,0,33.09,41.71V35.322A7.712,7.712,0,0,1,26.7,38.359c-4.816,0-7.75-3.036-7.75-8.12,0-4.867,2.989-8.01,7.491-8.01a8.824,8.824,0,0,1,6.65,2.879" transform="translate(37.821 -3.532)"/><path class="a" d="M33.09,25.109v-6.23a12.862,12.862,0,0,0-6.442-1.52c-8.01,0-13.458,5.236-13.458,13.038,0,7.7,5.291,13.041,12.884,13.041A13.958,13.958,0,0,0,33.09,41.71V35.322A7.712,7.712,0,0,1,26.7,38.359c-4.816,0-7.75-3.036-7.75-8.12,0-4.867,2.989-8.01,7.491-8.01a8.824,8.824,0,0,1,6.65,2.879" transform="translate(37.821 -3.532)"/><path class="a" d="M49.687,52.821,35.235,13.913,26.857,35.176c-.68,1.728-1.257,3.508-1.779,5.338-.475-1.622-1.1-3.4-1.834-5.236L14.707,13.913.2,52.821H6.277l7.016-19.059a52.086,52.086,0,0,0,1.834-5.814c.629,2.2,1.308,4.187,1.988,5.971l7.907,20.368,7.542-20c.208-.629.943-2.671,2.043-6.285.574,1.992,1.257,3.928,1.988,5.92l7.071,18.9Z" transform="translate(-0.204 -13.622)"/><path class="a" d="M49.687,52.821,35.235,13.913,26.857,35.176c-.68,1.728-1.257,3.508-1.779,5.338-.475-1.622-1.1-3.4-1.834-5.236L14.707,13.913.2,52.821H6.277l7.016-19.059a52.086,52.086,0,0,0,1.834-5.814c.629,2.2,1.308,4.187,1.988,5.971l7.907,20.368,7.542-20c.208-.629.943-2.671,2.043-6.285.574,1.992,1.257,3.928,1.988,5.92l7.071,18.9Z" transform="translate(-0.204 -13.622)"/><path class="a" d="M48.749,52.747h5.6V26.723a30.006,30.006,0,0,0,3.614,4.187l24.245,23.3v-38.9h-5.6V41.277a47.8,47.8,0,0,0-4.085-4.553L48.749,13.839Z" transform="translate(141.944 -13.839)"/><path class="a" d="M48.749,52.747h5.6V26.723a30.006,30.006,0,0,0,3.614,4.187l24.245,23.3v-38.9h-5.6V41.277a47.8,47.8,0,0,0-4.085-4.553L48.749,13.839Z" transform="translate(141.944 -13.839)"/><path class="a" d="M38.3,52.747h5.605V26.723a29.973,29.973,0,0,0,3.61,4.187l24.249,23.3v-38.9H66.161V41.277a47.26,47.26,0,0,0-4.085-4.553L38.3,13.839Z" transform="translate(111.356 -13.839)"/><path class="a" d="M38.3,52.747h5.605V26.723a29.973,29.973,0,0,0,3.61,4.187l24.249,23.3v-38.9H66.161V41.277a47.26,47.26,0,0,0-4.085-4.553L38.3,13.839Z" transform="translate(111.356 -13.839)"/><path class="a" d="M51.175,23.987l.314-6.128a20.435,20.435,0,0,0-12.1-3.873,19.674,19.674,0,0,0-14.189,5.6,19.4,19.4,0,0,0-5.708,14.086A19.565,19.565,0,0,0,25.151,47.76,19.871,19.871,0,0,0,39.5,53.311,19.349,19.349,0,0,0,51.124,49.8V42.944a18.078,18.078,0,0,1-12.1,4.71c-7.487,0-13.195-5.708-13.195-13.929,0-8.324,5.6-14.137,13.823-14.137a17.36,17.36,0,0,1,11.521,4.4" transform="translate(56.28 -13.409)"/><path class="a" d="M51.175,23.987l.314-6.128a20.435,20.435,0,0,0-12.1-3.873,19.674,19.674,0,0,0-14.189,5.6,19.4,19.4,0,0,0-5.708,14.086A19.565,19.565,0,0,0,25.151,47.76,19.871,19.871,0,0,0,39.5,53.311,19.349,19.349,0,0,0,51.124,49.8V42.944a18.078,18.078,0,0,1-12.1,4.71c-7.487,0-13.195-5.708-13.195-13.929,0-8.324,5.6-14.137,13.823-14.137a17.36,17.36,0,0,1,11.521,4.4" transform="translate(56.28 -13.409)"/><path class="a" d="M41.173,38.034,44.995,29.5a29.441,29.441,0,0,0,1.363-4.242A35.265,35.265,0,0,0,47.772,29.5l3.818,8.536ZM46.3,13.84,28.186,52.748h6.387l4.348-9.636H53.739l4.242,9.636h6.442Z" transform="translate(81.732 -13.836)"/><path class="a" d="M41.173,38.034,44.995,29.5a29.441,29.441,0,0,0,1.363-4.242A35.265,35.265,0,0,0,47.772,29.5l3.818,8.536ZM46.3,13.84,28.186,52.748h6.387l4.348-9.636H53.739l4.242,9.636h6.442Z" transform="translate(81.732 -13.836)"/></svg>