<?xml version="1.0" encoding="UTF-8"?>
<svg xmlns="http://www.w3.org/2000/svg" xmlns:xlink="http://www.w3.org/1999/xlink" width="41.25pt" height="41.250001pt" viewBox="0 0 41.25 41.250001" version="1.2">
<defs>
<clipPath id="clip1">
  <path d="M 1.105469 1.105469 L 39.410156 1.105469 L 39.410156 39.410156 L 1.105469 39.410156 Z M 1.105469 1.105469 "/>
</clipPath>
<filter id="alpha" filterUnits="objectBoundingBox" x="0%" y="0%" width="100%" height="100%">
  <feColorMatrix type="matrix" in="SourceGraphic" values="0 0 0 0 1 0 0 0 0 1 0 0 0 0 1 0 0 0 1 0"/>
</filter>
<mask id="mask0">
  <g filter="url(#alpha)">
<rect x="0" y="0" width="41.25" height="41.250001" style="fill:rgb(0%,0%,0%);fill-opacity:0.498;stroke:none;"/>
  </g>
</mask>
<clipPath id="clip3">
  <path d="M 0.179688 0.179688 L 38.363281 0.179688 L 38.363281 38.363281 L 0.179688 38.363281 Z M 0.179688 0.179688 "/>
</clipPath>
<clipPath id="clip2">
  <rect x="0" y="0" width="39" height="39"/>
</clipPath>
<g id="surface5" clip-path="url(#clip2)">
<g clip-path="url(#clip3)" clip-rule="nonzero">
<path style=" stroke:none;fill-rule:nonzero;fill:rgb(97.24884%,29.019165%,44.709778%);fill-opacity:1;" d="M 38.410156 19.257812 C 38.410156 19.882812 38.378906 20.507812 38.316406 21.132812 C 38.253906 21.757812 38.164062 22.378906 38.039062 22.992188 C 37.917969 23.609375 37.765625 24.214844 37.582031 24.816406 C 37.402344 25.417969 37.191406 26.007812 36.949219 26.585938 C 36.710938 27.164062 36.441406 27.730469 36.148438 28.285156 C 35.851562 28.839844 35.527344 29.375 35.179688 29.898438 C 34.832031 30.417969 34.460938 30.921875 34.0625 31.40625 C 33.664062 31.890625 33.242188 32.355469 32.800781 32.800781 C 32.355469 33.242188 31.890625 33.664062 31.40625 34.0625 C 30.921875 34.460938 30.417969 34.832031 29.898438 35.179688 C 29.375 35.53125 28.839844 35.851562 28.285156 36.148438 C 27.730469 36.441406 27.164062 36.710938 26.585938 36.949219 C 26.007812 37.191406 25.417969 37.402344 24.816406 37.582031 C 24.214844 37.765625 23.609375 37.917969 22.992188 38.039062 C 22.378906 38.164062 21.757812 38.253906 21.132812 38.316406 C 20.507812 38.378906 19.882812 38.410156 19.257812 38.410156 C 18.628906 38.410156 18.003906 38.378906 17.378906 38.316406 C 16.753906 38.253906 16.136719 38.164062 15.519531 38.039062 C 14.90625 37.917969 14.296875 37.765625 13.695312 37.582031 C 13.097656 37.402344 12.507812 37.191406 11.925781 36.949219 C 11.347656 36.710938 10.78125 36.441406 10.230469 36.148438 C 9.675781 35.851562 9.136719 35.527344 8.617188 35.179688 C 8.09375 34.832031 7.59375 34.460938 7.105469 34.0625 C 6.621094 33.664062 6.15625 33.242188 5.714844 32.800781 C 5.269531 32.355469 4.851562 31.890625 4.453125 31.40625 C 4.054688 30.921875 3.679688 30.417969 3.332031 29.898438 C 2.984375 29.375 2.660156 28.839844 2.367188 28.285156 C 2.070312 27.730469 1.804688 27.164062 1.5625 26.585938 C 1.324219 26.007812 1.113281 25.417969 0.929688 24.816406 C 0.746094 24.214844 0.59375 23.609375 0.472656 22.992188 C 0.351562 22.378906 0.257812 21.757812 0.195312 21.132812 C 0.136719 20.507812 0.105469 19.882812 0.105469 19.257812 C 0.105469 18.628906 0.136719 18.003906 0.195312 17.378906 C 0.257812 16.753906 0.351562 16.136719 0.472656 15.519531 C 0.59375 14.90625 0.746094 14.296875 0.929688 13.695312 C 1.113281 13.097656 1.324219 12.507812 1.5625 11.925781 C 1.804688 11.347656 2.070312 10.78125 2.367188 10.230469 C 2.660156 9.675781 2.984375 9.136719 3.332031 8.617188 C 3.679688 8.09375 4.054688 7.59375 4.453125 7.105469 C 4.851562 6.621094 5.269531 6.15625 5.714844 5.714844 C 6.15625 5.269531 6.621094 4.851562 7.105469 4.453125 C 7.59375 4.054688 8.09375 3.679688 8.617188 3.332031 C 9.136719 2.984375 9.675781 2.660156 10.230469 2.367188 C 10.78125 2.070312 11.347656 1.804688 11.925781 1.5625 C 12.507812 1.324219 13.097656 1.113281 13.695312 0.929688 C 14.296875 0.746094 14.90625 0.59375 15.519531 0.472656 C 16.136719 0.351562 16.753906 0.257812 17.378906 0.195312 C 18.003906 0.136719 18.628906 0.105469 19.257812 0.105469 C 19.882812 0.105469 20.507812 0.136719 21.132812 0.195312 C 21.757812 0.257812 22.378906 0.351562 22.992188 0.472656 C 23.609375 0.59375 24.214844 0.746094 24.816406 0.929688 C 25.417969 1.113281 26.007812 1.324219 26.585938 1.5625 C 27.164062 1.804688 27.730469 2.070312 28.285156 2.367188 C 28.839844 2.660156 29.375 2.984375 29.898438 3.332031 C 30.417969 3.679688 30.921875 4.054688 31.40625 4.453125 C 31.890625 4.851562 32.355469 5.269531 32.800781 5.714844 C 33.242188 6.15625 33.664062 6.621094 34.0625 7.105469 C 34.460938 7.59375 34.832031 8.09375 35.179688 8.617188 C 35.53125 9.136719 35.851562 9.675781 36.148438 10.230469 C 36.441406 10.78125 36.710938 11.347656 36.949219 11.925781 C 37.191406 12.507812 37.402344 13.097656 37.582031 13.695312 C 37.765625 14.296875 37.917969 14.90625 38.039062 15.519531 C 38.164062 16.136719 38.253906 16.753906 38.316406 17.378906 C 38.378906 18.003906 38.410156 18.628906 38.410156 19.257812 Z M 38.410156 19.257812 "/>
<path style="fill:none;stroke-width:2;stroke-linecap:butt;stroke-linejoin:miter;stroke:rgb(97.24884%,29.019165%,44.709778%);stroke-opacity:1;stroke-miterlimit:4;" d="M 51.000002 26.001513 C 51.000002 26.81818 50.957578 27.634846 50.878032 28.451513 C 50.798487 29.262877 50.68182 30.07424 50.517426 30.874998 C 50.358335 31.681059 50.162123 32.47121 49.923487 33.256059 C 49.684851 34.040907 49.409093 34.809847 49.096214 35.56818 C 48.783335 36.32121 48.433335 37.063635 48.046214 37.784847 C 47.664396 38.506059 47.240154 39.206059 46.784093 39.89015 C 46.333335 40.568938 45.845457 41.226514 45.32576 41.857574 C 44.806063 42.493938 44.254547 43.098483 43.676517 43.676514 C 43.098487 44.254544 42.493941 44.806059 41.857578 45.325756 C 41.226517 45.845453 40.568941 46.333332 39.890153 46.78409 C 39.206062 47.24015 38.506062 47.664393 37.78485 48.046211 C 37.063638 48.433332 36.321214 48.783332 35.568183 49.096211 C 34.80985 49.40909 34.040911 49.684847 33.256062 49.923484 C 32.471214 50.16212 31.681062 50.358332 30.875001 50.517423 C 30.074244 50.681817 29.26288 50.798484 28.451516 50.878029 C 27.63485 50.957575 26.818183 50.999999 26.001516 50.999999 C 25.179547 50.999999 24.36288 50.957575 23.551516 50.878029 C 22.734849 50.798484 21.923486 50.681817 21.122728 50.517423 C 20.321971 50.358332 19.526516 50.16212 18.741668 49.923484 C 17.956819 49.684847 17.18788 49.40909 16.434849 49.096211 C 15.676516 48.783332 14.939395 48.433332 14.212879 48.046211 C 13.491667 47.664393 12.791667 47.24015 12.112879 46.78409 C 11.428788 46.333332 10.771213 45.845453 10.140152 45.325756 C 9.509091 44.806059 8.899243 44.254544 8.321213 43.676514 C 7.743182 43.098483 7.191667 42.493938 6.677273 41.857574 C 6.157576 41.226514 5.669697 40.568938 5.213637 39.89015 C 4.757576 39.206059 4.338637 38.506059 3.951515 37.784847 C 3.564394 37.063635 3.214394 36.32121 2.901515 35.56818 C 2.588637 34.809847 2.312879 34.040907 2.074243 33.256059 C 1.840909 32.47121 1.639394 31.681059 1.480303 30.874998 C 1.321212 30.07424 1.199243 29.262877 1.119697 28.451513 C 1.040152 27.634846 0.997727 26.81818 0.997727 26.001513 C 0.997727 25.179543 1.040152 24.362877 1.119697 23.551513 C 1.199243 22.734846 1.321212 21.923482 1.480303 21.122725 C 1.639394 20.321967 1.840909 19.526513 2.074243 18.741664 C 2.312879 17.956816 2.588637 17.187876 2.901515 16.434846 C 3.214394 15.676513 3.564394 14.939391 3.951515 14.212876 C 4.338637 13.491664 4.757576 12.791664 5.213637 12.112876 C 5.669697 11.428785 6.157576 10.771209 6.677273 10.140149 C 7.191667 9.509088 7.743182 8.89924 8.321213 8.321209 C 8.899243 7.743179 9.509091 7.191664 10.140152 6.67727 C 10.771213 6.157573 11.428788 5.669694 12.112879 5.213633 C 12.791667 4.757573 13.491667 4.338633 14.212879 3.951512 C 14.939395 3.564391 15.676516 3.214391 16.434849 2.901512 C 17.18788 2.588633 17.956819 2.312876 18.741668 2.074239 C 19.526516 1.840906 20.321971 1.639391 21.122728 1.4803 C 21.923486 1.321209 22.734849 1.199239 23.551516 1.119694 C 24.36288 1.040148 25.179547 0.997724 26.001516 0.997724 C 26.818183 0.997724 27.63485 1.040148 28.451516 1.119694 C 29.26288 1.199239 30.074244 1.321209 30.875001 1.4803 C 31.681062 1.639391 32.471214 1.840906 33.256062 2.074239 C 34.040911 2.312876 34.80985 2.588633 35.568183 2.901512 C 36.321214 3.214391 37.063638 3.564391 37.78485 3.951512 C 38.506062 4.338633 39.206062 4.757573 39.890153 5.213633 C 40.568941 5.669694 41.226517 6.157573 41.857578 6.67727 C 42.493941 7.191664 43.098487 7.743179 43.676517 8.321209 C 44.254547 8.89924 44.806063 9.509088 45.32576 10.140149 C 45.845457 10.771209 46.333335 11.428785 46.784093 12.112876 C 47.240154 12.791664 47.664396 13.491664 48.046214 14.212876 C 48.433335 14.939391 48.783335 15.676513 49.096214 16.434846 C 49.409093 17.187876 49.684851 17.956816 49.923487 18.741664 C 50.162123 19.526513 50.358335 20.321967 50.517426 21.122725 C 50.68182 21.923482 50.798487 22.734846 50.878032 23.551513 C 50.957578 24.362877 51.000002 25.179543 51.000002 26.001513 Z M 51.000002 26.001513 " transform="matrix(0.736607,0,0,0.736607,0.104911,0.104913)"/>
</g>
<path style=" stroke:none;fill-rule:nonzero;fill:rgb(100%,100%,100%);fill-opacity:1;" d="M 22.492188 12.792969 L 21.289062 11.589844 L 14.566406 18.3125 L 21.289062 25.039062 L 22.492188 23.835938 L 16.964844 18.3125 Z M 22.492188 12.792969 "/>
</g>
<clipPath id="clip4">
  <path d="M 15.109375 11.433594 L 24 11.433594 L 24 26.785156 L 15.109375 26.785156 Z M 15.109375 11.433594 "/>
</clipPath>
</defs>
<g id="surface1">
<path style=" stroke:none;fill-rule:nonzero;fill:rgb(97.24884%,29.019165%,44.709778%);fill-opacity:1;" d="M 20.257812 0.550781 C 19.613281 0.550781 18.96875 0.585938 18.324219 0.648438 C 17.683594 0.710938 17.046875 0.804688 16.414062 0.929688 C 15.78125 1.058594 15.15625 1.214844 14.535156 1.402344 C 13.917969 1.589844 13.3125 1.804688 12.714844 2.050781 C 12.121094 2.300781 11.539062 2.574219 10.96875 2.878906 C 10.398438 3.183594 9.847656 3.515625 9.308594 3.875 C 8.773438 4.230469 8.253906 4.617188 7.757812 5.023438 C 7.257812 5.433594 6.78125 5.867188 6.324219 6.324219 C 5.867188 6.78125 5.433594 7.257812 5.023438 7.757812 C 4.617188 8.253906 4.230469 8.773438 3.875 9.308594 C 3.515625 9.847656 3.183594 10.398438 2.878906 10.96875 C 2.574219 11.539062 2.300781 12.121094 2.050781 12.714844 C 1.804688 13.3125 1.589844 13.917969 1.402344 14.535156 C 1.214844 15.15625 1.058594 15.78125 0.929688 16.414062 C 0.804688 17.046875 0.710938 17.683594 0.648438 18.324219 C 0.585938 18.96875 0.550781 19.613281 0.550781 20.257812 C 0.550781 20.902344 0.585938 21.546875 0.648438 22.1875 C 0.710938 22.832031 0.804688 23.46875 0.929688 24.101562 C 1.058594 24.734375 1.214844 25.359375 1.402344 25.976562 C 1.589844 26.59375 1.804688 27.199219 2.050781 27.796875 C 2.300781 28.394531 2.574219 28.976562 2.878906 29.546875 C 3.183594 30.113281 3.515625 30.667969 3.875 31.203125 C 4.230469 31.742188 4.617188 32.257812 5.023438 32.757812 C 5.433594 33.253906 5.867188 33.734375 6.324219 34.191406 C 6.78125 34.644531 7.257812 35.078125 7.757812 35.488281 C 8.253906 35.898438 8.773438 36.28125 9.308594 36.640625 C 9.847656 37 10.398438 37.328125 10.96875 37.632812 C 11.539062 37.9375 12.121094 38.214844 12.714844 38.460938 C 13.3125 38.707031 13.917969 38.925781 14.535156 39.113281 C 15.15625 39.300781 15.78125 39.457031 16.414062 39.582031 C 17.046875 39.707031 17.683594 39.804688 18.324219 39.867188 C 18.96875 39.929688 19.613281 39.960938 20.257812 39.960938 C 20.902344 39.960938 21.546875 39.929688 22.1875 39.867188 C 22.832031 39.804688 23.46875 39.707031 24.101562 39.582031 C 24.734375 39.457031 25.359375 39.300781 25.976562 39.113281 C 26.59375 38.925781 27.199219 38.707031 27.796875 38.460938 C 28.394531 38.214844 28.976562 37.9375 29.546875 37.632812 C 30.113281 37.328125 30.667969 37 31.203125 36.640625 C 31.742188 36.28125 32.257812 35.898438 32.757812 35.488281 C 33.253906 35.078125 33.734375 34.644531 34.191406 34.191406 C 34.644531 33.734375 35.078125 33.253906 35.488281 32.757812 C 35.898438 32.257812 36.28125 31.742188 36.640625 31.203125 C 37 30.667969 37.328125 30.113281 37.632812 29.546875 C 37.9375 28.976562 38.214844 28.394531 38.460938 27.796875 C 38.707031 27.199219 38.925781 26.59375 39.113281 25.976562 C 39.300781 25.359375 39.457031 24.734375 39.582031 24.101562 C 39.707031 23.46875 39.804688 22.832031 39.867188 22.1875 C 39.929688 21.546875 39.960938 20.902344 39.960938 20.257812 C 39.960938 19.613281 39.929688 18.96875 39.867188 18.324219 C 39.804688 17.683594 39.707031 17.046875 39.582031 16.414062 C 39.457031 15.78125 39.300781 15.15625 39.113281 14.535156 C 38.925781 13.917969 38.707031 13.3125 38.460938 12.714844 C 38.214844 12.121094 37.9375 11.539062 37.632812 10.96875 C 37.328125 10.398438 37 9.847656 36.640625 9.308594 C 36.28125 8.773438 35.898438 8.253906 35.488281 7.757812 C 35.078125 7.257812 34.644531 6.78125 34.191406 6.324219 C 33.734375 5.867188 33.253906 5.433594 32.757812 5.023438 C 32.257812 4.617188 31.742188 4.230469 31.203125 3.875 C 30.667969 3.515625 30.113281 3.183594 29.546875 2.878906 C 28.976562 2.574219 28.394531 2.300781 27.796875 2.050781 C 27.199219 1.804688 26.59375 1.589844 25.976562 1.402344 C 25.359375 1.214844 24.734375 1.058594 24.101562 0.929688 C 23.46875 0.804688 22.832031 0.710938 22.1875 0.648438 C 21.546875 0.585938 20.902344 0.550781 20.257812 0.550781 Z M 20.257812 0.550781 "/>
<g clip-path="url(#clip1)" clip-rule="nonzero">
<use xlink:href="#surface5" transform="matrix(1,0,0,1,1,1)" mask="url(#mask0)"/>
</g>
<g clip-path="url(#clip4)" clip-rule="nonzero">
<path style=" stroke:none;fill-rule:nonzero;fill:rgb(100%,100%,100%);fill-opacity:1;" d="M 22.433594 26.378906 L 15.578125 19.128906 L 22.480469 11.828125 L 23.886719 13.3125 L 18.386719 19.128906 L 23.835938 24.894531 L 22.433594 26.378906 "/>
</g>
</g>
</svg>
